<?xml version="1.0" encoding="UTF-8" standalone="no"?>
<!-- Uploaded to: SVG Repo, www.svgrepo.com, Generator: SVG Repo Mixer Tools -->

<svg
   fill="#000000"
   height="32"
   width="32"
   version="1.1"
   id="Capa_1"
   viewBox="0 0 24 24"
   xml:space="preserve"
   sodipodi:docname="background.svg"
   inkscape:version="1.3 (0e150ed6c4, 2023-07-21)"
   xmlns:inkscape="http://www.inkscape.org/namespaces/inkscape"
   xmlns:sodipodi="http://sodipodi.sourceforge.net/DTD/sodipodi-0.dtd"
   xmlns="http://www.w3.org/2000/svg"
   xmlns:svg="http://www.w3.org/2000/svg"><defs
   id="defs5" /><sodipodi:namedview
   id="namedview5"
   pagecolor="#ffffff"
   bordercolor="#000000"
   borderopacity="0.25"
   inkscape:showpageshadow="2"
   inkscape:pageopacity="0.0"
   inkscape:pagecheckerboard="0"
   inkscape:deskcolor="#d1d1d1"
   inkscape:zoom="16.62"
   inkscape:cx="15.222623"
   inkscape:cy="11.462094"
   inkscape:window-width="1920"
   inkscape:window-height="1027"
   inkscape:window-x="-8"
   inkscape:window-y="-8"
   inkscape:window-maximized="1"
   inkscape:current-layer="Capa_1" />&#10;<g
   style="fill:#e0e0e0;fill-opacity:1;stroke:none"
   id="g6"
   transform="matrix(0.07649136,0,0,0.07649136,0.75561655,0.75557832)"><path
     d="M 281.504,10.27 H 12.5 C 5.597,10.27 0,15.866 0,22.77 v 248.465 c 0,6.903 5.597,12.5 12.5,12.5 h 269.004 c 6.903,0 12.5,-5.597 12.5,-12.5 V 22.77 c 0,-6.904 -5.597,-12.5 -12.5,-12.5 z M 61.01,108.295 c -19.873,0 -35.983,-16.11 -35.983,-35.983 0,-19.873 16.11,-35.983 35.983,-35.983 19.873,0 35.983,16.11 35.983,35.983 0,19.873 -16.111,35.983 -35.983,35.983 z m 79.87,129.895 c 1.526,3.06 1.36,6.692 -0.439,9.6 -1.799,2.907 -4.975,4.677 -8.395,4.677 -10.912,0 -80.172,0 -90.662,0 -3.42,0 -6.596,-1.77 -8.395,-4.677 -1.799,-2.908 -1.965,-6.54 -0.439,-9.6 l 45.331,-90.881 c 1.67,-3.35 5.091,-5.466 8.834,-5.466 3.743,0 7.163,2.116 8.834,5.466 z m 123.046,9.6 c -1.799,2.907 -4.975,4.677 -8.395,4.677 h -89.358 c 1.859,-6.428 1.874,-13.276 0.003,-19.744 -1.28,-4.423 0.46,-0.401 -33.371,-68.229 l 38.567,-77.321 c 1.671,-3.35 5.091,-5.466 8.834,-5.466 3.743,0 7.163,2.116 8.834,5.466 l 75.326,151.016 c 1.525,3.061 1.359,6.693 -0.44,9.601 z"
     id="path1"
     style="fill-opacity:1;stroke:none" /></g>&#10;</svg>
