<?xml version="1.0" encoding="UTF-8" standalone="no"?>
<!-- Uploaded to: SVG Repo, www.svgrepo.com, Transformed by: SVG Repo Mixer Tools -->

<svg
   fill="#E0E0E0"
   width="100px"
   height="100px"
   viewBox="0 0 1000 1000"
   stroke="#E0E0E0"
   version="1.1"
   id="svg1"
   sodipodi:docname="evidence.svg"
   inkscape:version="1.3 (0e150ed6c4, 2023-07-21)"
   xmlns:inkscape="http://www.inkscape.org/namespaces/inkscape"
   xmlns:sodipodi="http://sodipodi.sourceforge.net/DTD/sodipodi-0.dtd"
   xmlns="http://www.w3.org/2000/svg"
   xmlns:svg="http://www.w3.org/2000/svg">
  <defs
     id="defs1" />
  <sodipodi:namedview
     id="namedview1"
     pagecolor="#ffffff"
     bordercolor="#000000"
     borderopacity="0.25"
     inkscape:showpageshadow="2"
     inkscape:pageopacity="0.0"
     inkscape:pagecheckerboard="0"
     inkscape:deskcolor="#d1d1d1"
     inkscape:zoom="4.045"
     inkscape:cx="45.859085"
     inkscape:cy="27.317676"
     inkscape:window-width="1351"
     inkscape:window-height="1041"
     inkscape:window-x="78"
     inkscape:window-y="0"
     inkscape:window-maximized="0"
     inkscape:current-layer="svg1" />
  <g
     id="SVGRepo_bgCarrier"
     stroke-width="0" />
  <g
     id="SVGRepo_tracerCarrier"
     stroke-linecap="round"
     stroke-linejoin="round" />
  <g
     id="SVGRepo_iconCarrier-7"
     transform="matrix(15.172634,0,0,15.172634,-258.6317,-243.45907)"> <g
   id="g4"> <g
   id="g2"> <path
   d="m 38,29 h 4 c 0.6,0 1,-0.4 1,-1 v -3 h 14 v 3 c 0,0.6 0.4,1 1,1 h 4 c 0.6,0 1,-0.4 1,-1 v -3 c 0,-3.3 -2.7,-6 -6,-6 H 43 c -3.3,0 -6,2.7 -6,6 v 3 c 0,0.6 0.4,1 1,1 z"
   id="path1-2" />
 </g>
 <g
   id="g3"> <path
   d="M 74,35 H 26 c -3.3,0 -6,2.7 -6,6 v 32 c 0,3.3 2.7,6 6,6 h 48 c 3.3,0 6,-2.7 6,-6 V 41 c 0,-3.3 -2.7,-6 -6,-6 z"
   id="path2" />
 </g>
 </g>
 </g>
</svg>
