<?xml version="1.0" encoding="UTF-8" standalone="no"?>
<!-- Uploaded to: SVG Repo, www.svgrepo.com, Generator: SVG Repo Mixer Tools -->

<svg
   fill="#000000"
   height="32"
   width="32"
   version="1.1"
   id="Capa_1"
   viewBox="0 0 24 24"
   xml:space="preserve"
   sodipodi:docname="fade.svg"
   inkscape:version="1.3 (0e150ed6c4, 2023-07-21)"
   xmlns:inkscape="http://www.inkscape.org/namespaces/inkscape"
   xmlns:sodipodi="http://sodipodi.sourceforge.net/DTD/sodipodi-0.dtd"
   xmlns:xlink="http://www.w3.org/1999/xlink"
   xmlns="http://www.w3.org/2000/svg"
   xmlns:svg="http://www.w3.org/2000/svg"><defs
   id="defs5"><linearGradient
     id="linearGradient8"
     inkscape:collect="always"><stop
       style="stop-color:#e0e0e0;stop-opacity:1;"
       offset="0"
       id="stop8" /><stop
       style="stop-color:#e0e0e0;stop-opacity:0;"
       offset="1"
       id="stop9" /></linearGradient><linearGradient
     inkscape:collect="always"
     xlink:href="#linearGradient8"
     id="linearGradient9"
     x1="0.51990941"
     y1="12.194837"
     x2="23.121658"
     y2="12.194837"
     gradientUnits="userSpaceOnUse"
     gradientTransform="matrix(1.1188256,0,0,1.1188256,-0.71518422,-1.6724431)" /></defs><sodipodi:namedview
   id="namedview5"
   pagecolor="#ffffff"
   bordercolor="#000000"
   borderopacity="0.25"
   inkscape:showpageshadow="2"
   inkscape:pageopacity="0.0"
   inkscape:pagecheckerboard="0"
   inkscape:deskcolor="#d1d1d1"
   inkscape:zoom="23.504229"
   inkscape:cx="14.316572"
   inkscape:cy="9.6365636"
   inkscape:window-width="1920"
   inkscape:window-height="1027"
   inkscape:window-x="-8"
   inkscape:window-y="-8"
   inkscape:window-maximized="1"
   inkscape:current-layer="Capa_1" />&#10;&#10;<path
   id="text8"
   style="font-style:normal;font-variant:normal;font-weight:normal;font-stretch:normal;font-size:14.9176px;line-height:0;font-family:'Arial Rounded MT Bold';-inkscape-font-specification:'Arial Rounded MT Bold, ';letter-spacing:-1.11883px;fill:url(#linearGradient9);fill-opacity:1;stroke:none;stroke-width:3.29047;stroke-linecap:round;stroke-dasharray:none"
   d="M 10.058594 6.3476562 C 9.7380988 6.3476562 9.4882652 6.447389 9.3085938 6.6464844 C 9.1871941 6.7873079 9.1269531 6.9541981 9.1269531 7.1484375 L 9.1269531 16.771484 C 9.1269531 17.300787 9.3866596 17.564453 9.90625 17.564453 C 10.372425 17.564453 10.639047 17.331409 10.707031 16.865234 L 10.794922 16.267578 C 10.950313 16.529801 11.146822 16.755929 11.384766 16.945312 C 11.943204 17.396919 12.586055 17.623047 13.314453 17.623047 C 14.45561 17.623047 15.364081 17.190537 16.039062 16.326172 C 16.612069 15.588062 16.898438 14.658842 16.898438 13.537109 C 16.898438 12.497929 16.618985 11.606247 16.060547 10.863281 C 15.361285 9.9406442 14.436025 9.4804688 13.285156 9.4804688 C 12.299391 9.4804688 11.534105 9.8172056 10.990234 10.492188 L 10.990234 7.1484375 C 10.990234 6.98819 10.949739 6.8479621 10.867188 6.7265625 C 10.697228 6.4740513 10.427649 6.3476562 10.058594 6.3476562 z M 20.958984 9.4355469 C 20.585074 9.4355469 20.225634 9.4789985 19.880859 9.5664062 C 18.802831 9.8431974 18.001009 10.471213 17.476562 11.447266 C 17.1415 12.068832 16.974609 12.758091 16.974609 13.515625 C 16.974609 14.705341 17.328136 15.68097 18.037109 16.443359 C 18.784931 17.249453 19.766473 17.652344 20.980469 17.652344 C 22.170185 17.652344 23.07174 17.299821 23.683594 16.595703 C 23.906969 16.338336 24.017578 16.081586 24.017578 15.824219 C 24.017578 15.53286 23.907972 15.293902 23.689453 15.109375 C 23.50007 14.944272 23.299601 14.863281 23.085938 14.863281 C 22.857706 14.863281 22.67107 14.957101 22.525391 15.146484 C 22.064072 15.724347 21.548619 16.013672 20.980469 16.013672 C 20.388039 16.013672 19.888371 15.760882 19.480469 15.255859 C 19.111414 14.794541 18.925781 14.221803 18.925781 13.537109 C 18.925781 12.862128 19.088712 12.299263 19.414062 11.847656 C 19.797685 11.313498 20.307225 11.044922 20.943359 11.044922 C 21.501798 11.044922 21.987632 11.297712 22.400391 11.802734 C 22.57035 12.011542 22.782645 12.117188 23.035156 12.117188 C 23.258532 12.117188 23.456044 12.041161 23.630859 11.890625 C 23.825099 11.720666 23.923828 11.51724 23.923828 11.279297 C 23.923828 10.963658 23.764858 10.650627 23.449219 10.339844 C 22.837365 9.7377017 22.007877 9.4355469 20.958984 9.4355469 z M 3.6308594 9.4804688 C 3.1501169 9.4804688 2.6909449 9.5742885 2.2539062 9.7636719 C 1.6226282 10.030751 1.1091282 10.457348 0.7109375 11.044922 C 0.22533904 11.753896 -0.017578125 12.588293 -0.017578125 13.544922 C -0.017578125 14.554967 0.21942601 15.414073 0.6953125 16.123047 C 1.3654384 17.12338 2.3232742 17.623047 3.5664062 17.623047 C 4.7318426 17.623047 5.5544138 17.190537 6.0351562 16.326172 L 6.1152344 16.830078 C 6.1880741 17.320533 6.4606101 17.564453 6.9316406 17.564453 C 7.2715595 17.564453 7.5144767 17.446928 7.6601562 17.208984 C 7.732996 17.082729 7.7695312 16.936588 7.7695312 16.771484 L 7.7695312 10.265625 C 7.7695312 10.139369 7.7438723 10.025804 7.6953125 9.9238281 C 7.549633 9.6276131 7.28301 9.4804688 6.8945312 9.4804688 C 6.4089328 9.4804688 6.1492263 9.6779811 6.1152344 10.076172 L 6.0722656 10.550781 C 5.5235394 9.8369515 4.708888 9.4804688 3.6308594 9.4804688 z M 3.921875 11.060547 C 4.4511773 11.060547 4.9172658 11.263972 5.3203125 11.671875 C 5.7185032 12.074922 5.9179688 12.546923 5.9179688 13.085938 L 5.9179688 13.667969 C 5.9179688 14.41579 5.6513458 15.034936 5.1171875 15.525391 C 4.7529887 15.860454 4.3500977 16.027344 3.9082031 16.027344 C 3.1943734 16.027344 2.658171 15.70444 2.2988281 15.058594 C 2.0657409 14.636123 1.9492188 14.129539 1.9492188 13.537109 C 1.9492188 12.84756 2.1131524 12.277778 2.4433594 11.826172 C 2.8172702 11.316293 3.3100209 11.060547 3.921875 11.060547 z M 12.957031 11.060547 C 13.457198 11.060547 13.885747 11.234353 14.240234 11.583984 C 14.711265 12.050159 14.947266 12.698924 14.947266 13.529297 C 14.947266 14.281974 14.764589 14.887287 14.400391 15.34375 C 14.041048 15.800213 13.572003 16.027344 12.994141 16.027344 C 12.591094 16.027344 12.217822 15.890072 11.873047 15.613281 C 11.275761 15.127683 10.976562 14.478918 10.976562 13.667969 L 10.976562 13.085938 C 10.976562 12.440092 11.239226 11.907849 11.763672 11.490234 C 12.127871 11.203731 12.524849 11.060547 12.957031 11.060547 z " /></svg>
