<?xml version="1.0" encoding="UTF-8" standalone="no"?>
<!-- Uploaded to: SVG Repo, www.svgrepo.com, Generator: SVG Repo Mixer Tools -->

<svg
   fill="#000000"
   height="32"
   width="32"
   version="1.1"
   id="Capa_1"
   viewBox="0 0 24 24"
   xml:space="preserve"
   sodipodi:docname="shake-text.svg"
   inkscape:version="1.3 (0e150ed6c4, 2023-07-21)"
   xmlns:inkscape="http://www.inkscape.org/namespaces/inkscape"
   xmlns:sodipodi="http://sodipodi.sourceforge.net/DTD/sodipodi-0.dtd"
   xmlns="http://www.w3.org/2000/svg"
   xmlns:svg="http://www.w3.org/2000/svg"><defs
   id="defs5" /><sodipodi:namedview
   id="namedview5"
   pagecolor="#ffffff"
   bordercolor="#000000"
   borderopacity="0.25"
   inkscape:showpageshadow="2"
   inkscape:pageopacity="0.0"
   inkscape:pagecheckerboard="0"
   inkscape:deskcolor="#d1d1d1"
   inkscape:zoom="16.62"
   inkscape:cx="15.192539"
   inkscape:cy="11.462094"
   inkscape:window-width="1920"
   inkscape:window-height="1027"
   inkscape:window-x="-8"
   inkscape:window-y="-8"
   inkscape:window-maximized="1"
   inkscape:current-layer="Capa_1" />&#10;<g
   id="g5"
   style="fill:#e0e0e0;fill-opacity:1;stroke:none"
   transform="scale(0.07444631)">&#10;	&#10;	<path
   d="m 66.945,51.904 c 6.903,0 12.5,-5.597 12.5,-12.5 0,-6.903 -5.597,-12.5 -12.5,-12.5 C 30.031,26.904 0,56.935 0,93.849 c 0,6.903 5.596,12.5 12.5,12.5 6.903,0 12.5,-5.597 12.5,-12.5 C 25,70.72 43.816,51.904 66.945,51.904 Z"
   id="path2"
   style="fill-opacity:1;stroke:none" />&#10;	<path
   d="m 93.675,77.907 c 0,-6.903 -5.597,-12.5 -12.5,-12.5 -23.529,0 -42.672,19.142 -42.672,42.671 0,6.903 5.597,12.5 12.5,12.5 6.903,0 12.5,-5.597 12.5,-12.5 0,-9.744 7.928,-17.671 17.672,-17.671 6.903,0 12.5,-5.597 12.5,-12.5 z"
   id="path3"
   style="fill-opacity:1;stroke:none;stroke-width:1.00018;stroke-dasharray:none" />&#10;	<path
   d="m 309.88,216.031 c -6.903,0 -12.5,5.597 -12.5,12.5 0,23.129 -18.816,41.945 -41.945,41.945 -6.903,0 -12.5,5.597 -12.5,12.5 0,6.903 5.597,12.5 12.5,12.5 36.914,0 66.945,-30.031 66.945,-66.945 0,-6.904 -5.597,-12.5 -12.5,-12.5 z"
   id="path4"
   style="fill-opacity:1;stroke:none" />&#10;	<path
   d="m 283.877,214.302 c 0,-6.903 -5.597,-12.5 -12.5,-12.5 -6.903,0 -12.5,5.597 -12.5,12.5 0,9.744 -7.927,17.671 -17.671,17.671 -6.903,0 -12.5,5.597 -12.5,12.5 0,6.903 5.597,12.5 12.5,12.5 23.529,0 42.671,-19.141 42.671,-42.671 z"
   id="path5"
   style="fill-opacity:1;stroke:none" />&#10;<g
   style="fill-opacity:1;stroke:none"
   id="g6"
   transform="matrix(0.48662235,0,0,0.48662235,89.655541,89.655298)" /></g>&#10;<g
   style="fill:none"
   id="g7"
   transform="matrix(0.62850263,0,0,0.62850263,4.4579684,4.4579684)"><g
     id="SVGRepo_bgCarrier"
     stroke-width="0" /><g
     id="SVGRepo_tracerCarrier"
     stroke-linecap="round"
     stroke-linejoin="round" /><g
     id="SVGRepo_iconCarrier"><g
       id="Edit / Text"><path
         id="Vector"
         d="m 10,19 h 2 m 0,0 h 2 m -2,0 V 5 m 0,0 H 6 v 1 m 6,-1 h 6 v 1"
         stroke="#e0e0e0"
         stroke-width="2"
         stroke-linecap="round"
         stroke-linejoin="round" /></g></g></g></svg>
