<?xml version="1.0" encoding="UTF-8" standalone="no"?>
<!-- Uploaded to: SVG Repo, www.svgrepo.com, Generator: SVG Repo Mixer Tools -->

<svg
   fill="#000000"
   height="32"
   width="32"
   version="1.1"
   id="Capa_1"
   viewBox="0 0 24 24"
   xml:space="preserve"
   sodipodi:docname="tornado.svg"
   inkscape:version="1.3 (0e150ed6c4, 2023-07-21)"
   xmlns:inkscape="http://www.inkscape.org/namespaces/inkscape"
   xmlns:sodipodi="http://sodipodi.sourceforge.net/DTD/sodipodi-0.dtd"
   xmlns="http://www.w3.org/2000/svg"
   xmlns:svg="http://www.w3.org/2000/svg"><defs
   id="defs5" /><sodipodi:namedview
   id="namedview5"
   pagecolor="#ffffff"
   bordercolor="#000000"
   borderopacity="0.25"
   inkscape:showpageshadow="2"
   inkscape:pageopacity="0.0"
   inkscape:pagecheckerboard="0"
   inkscape:deskcolor="#d1d1d1"
   inkscape:zoom="23.504229"
   inkscape:cx="15.507847"
   inkscape:cy="11.168203"
   inkscape:window-width="1920"
   inkscape:window-height="1027"
   inkscape:window-x="-8"
   inkscape:window-y="-8"
   inkscape:window-maximized="1"
   inkscape:current-layer="Capa_1" />&#10;&#10;<g
   style="fill:#e0e0e0;fill-opacity:1"
   id="g8"
   transform="matrix(0.99494503,0,0,0.99494503,0.06065905,0.06065905)"><path
     d="M 3,3 C 3,2.44772 3.44772,2 4,2 h 15 c 0.5523,0 1,0.44772 1,1 0,0.55228 -0.4477,1 -1,1 H 4 C 3.44772,4 3,3.55228 3,3 Z"
     id="path1"
     style="fill:#e0e0e0;fill-opacity:1" /><path
     d="M 7,6 C 7,5.44772 7.44772,5 8,5 h 12 c 0.5523,0 1,0.44772 1,1 0,0.55228 -0.4477,1 -1,1 H 8 C 7.44772,7 7,6.55228 7,6 Z"
     id="path2-0"
     style="fill:#e0e0e0;fill-opacity:1" /><path
     d="M 10,8 C 9.44772,8 9,8.44772 9,9 c 0,0.55228 0.44772,1 1,1 h 9 c 0.5523,0 1,-0.44772 1,-1 0,-0.55228 -0.4477,-1 -1,-1 z"
     id="path3-6"
     style="fill:#e0e0e0;fill-opacity:1" /><path
     d="m 6,12 c 0,-0.5523 0.44772,-1 1,-1 h 8 c 0.5523,0 1,0.4477 1,1 0,0.5523 -0.4477,1 -1,1 H 7 C 6.44772,13 6,12.5523 6,12 Z"
     id="path4-0"
     style="fill:#e0e0e0;fill-opacity:1" /><path
     d="m 7,14 c -0.55228,0 -1,0.4477 -1,1 0,0.5523 0.44772,1 1,1 h 6 c 0.5523,0 1,-0.4477 1,-1 0,-0.5523 -0.4477,-1 -1,-1 z"
     id="path5-3"
     style="fill:#e0e0e0;fill-opacity:1" /><path
     d="m 9,18 c 0,-0.5523 0.44772,-1 1,-1 h 5 c 0.5523,0 1,0.4477 1,1 0,0.5523 -0.4477,1 -1,1 H 10 C 9.44772,19 9,18.5523 9,18 Z"
     id="path6"
     style="fill:#e0e0e0;fill-opacity:1" /><path
     d="m 14,20 c -0.5523,0 -1,0.4477 -1,1 0,0.5523 0.4477,1 1,1 h 2 c 0.5523,0 1,-0.4477 1,-1 0,-0.5523 -0.4477,-1 -1,-1 z"
     id="path7"
     style="fill:#e0e0e0;fill-opacity:1" /></g></svg>
