<?xml version="1.0" encoding="UTF-8" standalone="no"?>
<!-- Uploaded to: SVG Repo, www.svgrepo.com, Generator: SVG Repo Mixer Tools -->

<svg
   fill="#000000"
   height="32"
   width="32"
   version="1.1"
   id="Capa_1"
   viewBox="0 0 24 24"
   xml:space="preserve"
   sodipodi:docname="wave.svg"
   inkscape:version="1.3 (0e150ed6c4, 2023-07-21)"
   xmlns:inkscape="http://www.inkscape.org/namespaces/inkscape"
   xmlns:sodipodi="http://sodipodi.sourceforge.net/DTD/sodipodi-0.dtd"
   xmlns:xlink="http://www.w3.org/1999/xlink"
   xmlns="http://www.w3.org/2000/svg"
   xmlns:svg="http://www.w3.org/2000/svg"><defs
   id="defs5"><inkscape:path-effect
     effect="spiro"
     id="path-effect14"
     is_visible="true"
     lpeversion="1" /><linearGradient
     id="linearGradient8"
     inkscape:collect="always"><stop
       style="stop-color:#e0e0e0;stop-opacity:1;"
       offset="0"
       id="stop8" /><stop
       style="stop-color:#e0e0e0;stop-opacity:0;"
       offset="1"
       id="stop9" /></linearGradient><linearGradient
     inkscape:collect="always"
     xlink:href="#linearGradient8"
     id="linearGradient9"
     x1="0.51990938"
     y1="12.194837"
     x2="23.121658"
     y2="12.194837"
     gradientUnits="userSpaceOnUse"
     gradientTransform="matrix(1.1188256,0,0,1.1188256,-0.71518422,-1.6724431)" /></defs><sodipodi:namedview
   id="namedview5"
   pagecolor="#ffffff"
   bordercolor="#000000"
   borderopacity="0.25"
   inkscape:showpageshadow="2"
   inkscape:pageopacity="0.0"
   inkscape:pagecheckerboard="0"
   inkscape:deskcolor="#d1d1d1"
   inkscape:zoom="16.62"
   inkscape:cx="12.515042"
   inkscape:cy="14.77136"
   inkscape:window-width="1920"
   inkscape:window-height="1027"
   inkscape:window-x="-8"
   inkscape:window-y="-8"
   inkscape:window-maximized="1"
   inkscape:current-layer="Capa_1" />&#10;&#10;<path
   style="-inkscape-font-specification:'UD Digi Kyokasho NP-B';fill:#e0e0e0;stroke-width:3.29047;stroke-linecap:round"
   d="m 3.6484824,6.2404606 c -0.4807425,0 -0.9379614,0.09382 -1.375,0.2832031 C 1.6422044,6.7907429 1.1267512,7.2192929 0.72856044,7.8068661 0.24296198,8.5158407 4.4805532e-5,9.348285 4.4805532e-5,10.304914 c 0,1.010045 0.238957264468,1.869152 0.714843754468,2.578125 0.67012594,1.000333 1.62600864,1.5 2.86914064,1.5 1.1654364,0 1.9880076,-0.43251 2.46875,-1.296875 l 0.080078,0.503907 c 0.07284,0.490454 0.3453757,0.734374 0.8164062,0.734374 0.339919,0 0.5828361,-0.117525 0.7285156,-0.355468 0.07284,-0.126256 0.109375,-0.272397 0.109375,-0.4375 V 7.0256169 C 7.787154,6.8993613 7.761495,6.7857956 7.712935,6.68382 7.567256,6.3876049 7.300633,6.2404606 6.9121542,6.2404606 c -0.4855983,0 -0.7453049,0.1994655 -0.7792968,0.5976563 L 6.0898886,7.3107731 C 5.5411624,6.5969434 4.726511,6.2404606 3.6484824,6.2404606 Z m 0.2929687,1.5800775 c 0.5293024,0 0.9953908,0.203425 1.3984375,0.6113284 C 5.7380794,8.834914 5.9375449,9.306916 5.9375449,9.84593 v 0.582031 c 0,0.747821 -0.2685761,1.366967 -0.8027344,1.857422 -0.3641988,0.335062 -0.7670898,0.501953 -1.2089844,0.501953 -0.7138297,0 -1.2500321,-0.322905 -1.609375,-0.96875 -0.2330872,-0.422471 -0.3496093,-0.929054 -0.3496093,-1.521484 0,-0.68955 0.1658868,-1.259332 0.4960937,-1.7109383 C 2.8368463,8.0762841 3.3295971,7.8205381 3.9414511,7.8205381 Z"
   id="path18" /><path
   style="-inkscape-font-specification:'UD Digi Kyokasho NP-B';fill:#e0e0e0;stroke-width:3.29047;stroke-linecap:round"
   d="m 20.780616,8.2201016 c -0.373911,0 -0.73335,0.043452 -1.078125,0.1308594 -1.078028,0.2767913 -1.87985,0.904806 -2.404297,1.880859 -0.335062,0.621566 -0.501953,1.310825 -0.501953,2.068359 0,1.189717 0.353527,2.165345 1.0625,2.927735 0.747822,0.806093 1.729364,1.208984 2.94336,1.208984 1.189716,0 2.091271,-0.352523 2.703125,-1.056641 0.223376,-0.257367 0.333984,-0.514117 0.333984,-0.771484 0,-0.291359 -0.109605,-0.528363 -0.328125,-0.71289 -0.189383,-0.165104 -0.389852,-0.248047 -0.603515,-0.248047 -0.228232,0 -0.414868,0.09382 -0.560547,0.283203 -0.461319,0.577862 -0.976772,0.867187 -1.544922,0.867187 -0.59243,0 -1.092097,-0.25279 -1.5,-0.757812 -0.369055,-0.461318 -0.554688,-1.034056 -0.554688,-1.71875 0,-0.674982 0.162931,-1.237847 0.488281,-1.689453 0.383623,-0.534159 0.895116,-0.800782 1.53125,-0.800782 0.558439,0 1.04232,0.250837 1.455079,0.75586 0.169959,0.208807 0.382254,0.314453 0.634765,0.314453 0.223375,0 0.422841,-0.07603 0.597656,-0.226563 0.19424,-0.169959 0.291016,-0.373385 0.291016,-0.611328 0,-0.315639 -0.15897,-0.62867 -0.474609,-0.939453 C 22.658997,8.5222563 21.829509,8.2201016 20.780616,8.2201016 Z"
   id="path17" /><path
   style="-inkscape-font-specification:'UD Digi Kyokasho NP-B';fill:#e0e0e0;stroke-width:3.29047;stroke-linecap:round"
   d="m 9.4869935,4.0792626 c -0.3204955,0 -0.5703288,0.099733 -0.7500002,0.2988282 C 8.6155936,4.5189143 8.5553526,4.6858045 8.5553526,4.8800439 v 9.6230471 c 0,0.529302 0.2597066,0.792968 0.7792969,0.792968 0.4661738,1e-6 0.7327965,-0.233044 0.8007805,-0.699218 l 0.08789,-0.595703 c 0.155392,0.262223 0.351901,0.486398 0.589844,0.675781 0.558438,0.451607 1.201289,0.677734 1.929687,0.677734 1.141156,0 2.049628,-0.43251 2.724609,-1.296875 0.573007,-0.73811 0.859376,-1.66733 0.859376,-2.789062 -1e-6,-1.039181 -0.279453,-1.930863 -0.837891,-2.6738284 -0.699262,-0.9226373 -1.624523,-1.3828125 -2.775391,-1.3828125 -0.985765,0 -1.749098,0.3367369 -2.292968,1.0117188 v -3.34375 c -10e-7,-0.1602475 -0.04245,-0.3004754 -0.125,-0.421875 C 10.125626,4.2056577 9.8560463,4.0792626 9.4869935,4.0792626 Z m 2.9003895,4.7128903 c 0.500167,0 0.926763,0.1757601 1.28125,0.5253911 0.471031,0.466175 0.707032,1.112986 0.707032,1.943359 0,0.752677 -0.182676,1.35799 -0.546875,1.814453 -0.359343,0.456463 -0.828388,0.683594 -1.40625,0.683594 -0.403047,0 -0.776319,-0.137271 -1.121094,-0.414062 -0.597286,-0.485599 -0.896484,-1.134364 -0.896485,-1.945313 v -0.582031 c 0,-0.645846 0.262664,-1.178088 0.78711,-1.595703 0.364199,-0.286503 0.76313,-0.4296881 1.195312,-0.4296881 z"
   id="text8" /><path
   style="fill:none;fill-opacity:1;stroke:#e0e0e0;stroke-width:2;stroke-linecap:round;stroke-dasharray:none;stroke-opacity:1"
   d="m 1.913793,17.690207 c 8.81741,-4.500729 8.73342,3.841615 20.465914,0"
   id="path19"
   sodipodi:nodetypes="cc" /></svg>
